<?xml version="1.0" standalone="no"?>
<!DOCTYPE svg PUBLIC "-//W3C//DTD SVG 20010904//EN"
 "http://www.w3.org/TR/2001/REC-SVG-20010904/DTD/svg10.dtd">
<svg version="1.0" xmlns="http://www.w3.org/2000/svg"
 width="512.000000pt" height="512.000000pt" viewBox="0 0 512.000000 512.000000"
 preserveAspectRatio="xMidYMid meet">
<metadata>
Created by potrace 1.11, written by Peter Selinger 2001-2013
</metadata>
<g transform="translate(0.000000,512.000000) scale(0.100000,-0.100000)"
fill="#000000" stroke="none">
<path d="M2259 5116 c-2 -2 -33 -7 -69 -11 -36 -4 -78 -8 -95 -10 -16 -2 -66
-11 -110 -20 -44 -9 -88 -19 -98 -20 -76 -16 -366 -104 -424 -131 -17 -8 -34
-14 -37 -14 -13 0 -186 -87 -262 -132 -213 -125 -447 -330 -627 -548 -43 -52
-81 -100 -85 -105 -4 -6 -19 -26 -33 -45 -53 -72 -144 -228 -190 -325 -55
-117 -131 -334 -146 -420 -2 -11 -8 -44 -14 -73 -6 -29 -13 -69 -15 -88 -2
-18 -7 -51 -10 -71 -16 -93 -9 -483 11 -583 2 -14 7 -38 10 -55 9 -46 36 -168
41 -185 3 -8 5 -16 5 -17 0 -2 13 -42 30 -90 36 -102 102 -246 153 -333 20
-34 38 -76 40 -93 3 -18 7 -39 10 -47 3 -8 8 -26 10 -40 12 -60 17 -81 52
-185 45 -138 154 -364 228 -474 31 -46 56 -86 56 -88 0 -1 8 -12 17 -22 10
-10 32 -36 48 -57 62 -80 146 -168 246 -257 63 -57 223 -178 259 -197 14 -7
27 -16 30 -20 8 -11 139 -85 228 -128 141 -70 344 -143 462 -167 8 -2 36 -8
61 -14 25 -6 66 -13 90 -16 24 -3 51 -7 59 -10 94 -28 586 -25 735 5 22 4 47
8 55 8 8 1 47 8 85 16 531 115 1010 390 1365 783 111 122 166 195 251 328 35
55 70 109 77 120 23 36 147 296 158 330 2 6 22 62 44 127 38 108 91 326 104
426 3 23 9 70 13 105 9 71 8 447 -1 522 -13 108 -15 120 -16 120 -1 0 -3 16
-6 35 -5 41 -38 183 -60 260 -46 159 -187 498 -215 516 -5 3 -7 9 -4 14 3 4
-2 13 -10 20 -8 7 -15 16 -15 21 0 13 -154 245 -208 314 -92 117 -284 315
-397 410 -33 27 -61 53 -63 57 -2 5 -8 8 -14 8 -5 0 -28 15 -51 34 -115 93
-344 224 -542 310 -16 7 -41 18 -55 24 -49 22 -265 92 -286 92 -11 0 -24 3
-28 7 -3 4 -12 8 -19 9 -7 1 -59 11 -118 23 -58 12 -125 24 -150 26 -24 3 -60
8 -79 11 -37 6 -475 15 -481 10z m762 -1847 c132 -55 242 -155 307 -279 77
-148 93 -271 58 -455 -6 -31 -54 -137 -82 -180 -74 -113 -156 -169 -318 -219
-137 -43 -361 -28 -537 35 -145 51 -316 158 -424 266 l-74 73 15 53 c9 28 24
70 35 93 10 22 19 46 19 52 0 7 5 12 10 12 6 0 10 5 10 12 0 11 77 137 91 148
3 3 10 13 15 23 21 37 185 197 203 197 5 0 11 4 13 8 13 33 225 141 326 167
144 37 235 35 333 -6z"/>
</g>
</svg>
